<?xml version="1.0" encoding="UTF-8"?>
<svg width="156pt" height="42pt" version="1.1" viewBox="0 0 156 42" xmlns="http://www.w3.org/2000/svg">
<rect width="156" height="42" fill="#203666" style="paint-order:stroke markers fill"/>
<g transform="rotate(-25 .96787 41.809)">
<path transform="matrix(.67973 .31696 -.31696 .67973 17.76 3.5081)" d="m4.6738 2.957 2.6562 12.004-7.3301-0.76563v0.22852l6.0391 4.0801-6.0391 4.6387v2.0293l8.293-1.834-0.80664 7.7324 4.3516-6.4434 7.4883 9.75-2.6562-12.004 7.7324 0.80859-6.4414-4.3516 9.748-7.4883-12.002 2.6543 0.80664-7.7324-4.3516 6.4414-7.4883-9.748z" fill="#c7a23c"/>
<path d="m33 20-9-2 3-5-5 3-2-9v13z" fill="#ab8a33"/>
<path transform="matrix(.67973 .31696 -.31696 .67973 17.76 3.5081)" d="m12 18.666-12 5.5957v0.91016l8.293-1.834-0.80664 7.7324 4.3516-6.4434 7.4883 9.75-7.3262-15.711z" fill="#ab8a33"/>
<path d="m33 20-9 2 3 5-5-3-2 9v-13z" fill="#8f742b"/>
<path d="m16 43 3-1 1-3 1 3 3 1-3 1-1 3-1-3z" fill="#c7a23c"/>
<path d="m24 43-3-1-1-3v4z" fill="#ab8a33"/>
<path d="m16 43 3 1 1 3v-4z" fill="#ab8a33"/>
<path d="m24 43-3 1-1 3v-4z" fill="#8f742b"/>
<path d="m39 20 3-1 1-3 1 3 3 1-3 1-1 3-1-3z" fill="#c7a23c"/>
<path d="m47 20-3-1-1-3v4z" fill="#ab8a33"/>
<path d="m39 20 3 1 1 3v-4z" fill="#ab8a33"/>
<path d="m47 20-3 1-1 3v-4z" fill="#8f742b"/>
<path d="m29 36 1-1 1 1-1 1z" fill="#c7a23c"/>
<path d="m31 36-1-1v1z" fill="#ab8a33"/>
<path d="m29 36 1 1v-1z" fill="#ab8a33"/>
<path d="m31 36-1 1v-1z" fill="#8f742b"/>
<path d="m35 30 1-1 1 1-1 1z" fill="#c7a23c"/>
<path d="m37 30-1-1v1z" fill="#ab8a33"/>
<path d="m35 30 1 1v-1z" fill="#ab8a33"/>
<path d="m37 30-1 1v-1z" fill="#8f742b"/>
<g transform="translate(-20)">
<path d="m29 36 1-1 1 1-1 1z" fill="#c7a23c"/>
<path d="m31 36-1-1v1z" fill="#ab8a33"/>
<path d="m29 36 1 1v-1z" fill="#ab8a33"/>
<path d="m31 36-1 1v-1z" fill="#8f742b"/>
</g>
</g>
<g fill="#5771d9" stroke-width=".75" aria-label="elizalina II">
<path d="m44.851 33.601c-1.11 1.98-2.46 2.88-4.35 2.88-2.13 0-3.66-1.05-4.47-3.09-0.45-1.05-0.6-2.37-0.6-4.5h10.41c-0.03-1.74-0.42-2.82-1.41-3.96-1.2-1.41-3.03-2.19-5.13-2.19-4.11 0-7.08 3.09-7.08 7.41 0 2.01 0.75 4.02 1.98 5.4 1.35 1.53 3.18 2.28 5.43 2.28 2.76 0 4.68-1.14 6.21-3.75zm-9.33-5.91c0.21-1.26 0.39-1.8 0.87-2.43 0.63-0.87 1.56-1.32 2.76-1.32 2.19 0 3.57 1.44 3.57 3.75z"/>
<path d="m52.021 16.051h-1.2c-1.5 0.6-2.19 0.75-4.23 1.02v0.93l0.63 0.06c1.65 0.21 1.98 0.78 1.95 3.36v12.69c0 1.65-0.54 2.37-1.86 2.49l-0.72 0.06v0.9h7.98v-0.9l-0.69-0.06c-1.32-0.12-1.86-0.84-1.86-2.49z"/>
<path d="m61.051 23.011h-1.02c-1.83 0.33-2.82 0.48-4.41 0.6v0.9l0.6 0.06c1.59 0.18 1.98 0.66 1.98 2.49v7.05c0 1.65-0.54 2.37-1.86 2.49l-0.75 0.06v0.9h8.04v-0.9l-0.72-0.06c-1.32-0.12-1.86-0.84-1.86-2.49zm-1.38-5.07c-1.02 0-1.83 0.81-1.83 1.8 0 1.02 0.81 1.83 1.83 1.83 0.99 0 1.8-0.81 1.8-1.83 0-0.99-0.81-1.8-1.8-1.8z"/>
<path d="m78.961 32.821-0.84-0.3c-1.95 3.06-3.69 4.14-6.72 4.14-1.2 0-1.71-0.09-2.85-0.42l10.05-12.48-0.33-0.75h-11.22l-1.68 4.41 0.93 0.33c0.72-1.47 1.23-2.1 2.07-2.7 1.05-0.69 2.73-1.14 4.35-1.14 0.69 0 1.14 0.06 2.01 0.24l-9.84 12.54 0.48 0.87h11.97z"/>
<path d="m90.601 29.041c-0.24 0.03-0.72 0.09-1.44 0.15-1.89 0.21-2.55 0.3-3.63 0.6-3.33 0.84-5.04 2.31-5.04 4.32 0 2.16 1.95 3.72 4.62 3.72 2.04 0 3.48-0.6 5.49-2.31 0.57 1.62 1.59 2.31 3.36 2.31 1.29 0 2.25-0.36 3.09-1.17l-0.57-0.78c-0.51 0.45-0.84 0.6-1.35 0.6-0.63 0-1.17-0.3-1.41-0.84-0.21-0.42-0.27-0.81-0.27-2.1v-6.36c0-1.8-0.48-2.73-1.71-3.42-1.11-0.63-2.64-1.02-4.05-1.02-3.48 0-6.54 1.8-6.54 3.81 0 0.72 0.66 1.32 1.44 1.32 0.84 0 1.53-0.69 1.53-1.53l-0.03-0.84c0-0.87 1.35-1.56 3.03-1.56 2.13 0 3.48 1.02 3.48 2.7zm0 5.13c-1.71 1.59-2.94 2.22-4.47 2.22-1.41 0-2.58-1.14-2.58-2.55 0-2.04 2.52-3.36 7.05-3.75z"/>
<path d="m102.87 16.051h-1.2c-1.5 0.6-2.19 0.75-4.23 1.02v0.93l0.63 0.06c1.65 0.21 1.98 0.78 1.95 3.36v12.69c0 1.65-0.54 2.37-1.86 2.49l-0.72 0.06v0.9h7.98v-0.9l-0.69-0.06c-1.32-0.12-1.86-0.84-1.86-2.49z"/>
<path d="m111.9 23.011h-1.02c-1.83 0.33-2.82 0.48-4.41 0.6v0.9l0.6 0.06c1.59 0.18 1.98 0.66 1.98 2.49v7.05c0 1.65-0.54 2.37-1.86 2.49l-0.75 0.06v0.9h8.04v-0.9l-0.72-0.06c-1.32-0.12-1.86-0.84-1.86-2.49zm-1.38-5.07c-1.02 0-1.83 0.81-1.83 1.8 0 1.02 0.81 1.83 1.83 1.83 0.99 0 1.8-0.81 1.8-1.83 0-0.99-0.81-1.8-1.8-1.8z"/>
<path d="m120.99 23.011h-1.02c-1.86 0.36-2.85 0.48-4.53 0.6v0.9l0.72 0.06c1.59 0.18 1.98 0.66 1.98 2.49v7.05c0 1.65-0.54 2.37-1.86 2.49l-0.75 0.06v0.9h8.07v-0.9l-0.75-0.06c-1.32-0.12-1.86-0.84-1.86-2.49v-7.41c1.86-1.68 3.63-2.52 5.31-2.52 1.65 0 2.55 1.05 2.55 3v6.93c0 1.65-0.57 2.37-1.86 2.49l-0.75 0.06v0.9h8.07v-0.9l-0.75-0.06c-1.32-0.12-1.86-0.84-1.86-2.49v-7.41c0-2.49-1.68-3.96-4.53-3.96-2.31 0-4.05 0.75-6.18 2.64z"/>
<path d="m145.8 29.041c-0.24 0.03-0.72 0.09-1.44 0.15-1.89 0.21-2.55 0.3-3.63 0.6-3.33 0.84-5.04 2.31-5.04 4.32 0 2.16 1.95 3.72 4.62 3.72 2.04 0 3.48-0.6 5.49-2.31 0.57 1.62 1.59 2.31 3.36 2.31 1.29 0 2.25-0.36 3.09-1.17l-0.57-0.78c-0.51 0.45-0.84 0.6-1.35 0.6-0.63 0-1.17-0.3-1.41-0.84-0.21-0.42-0.27-0.81-0.27-2.1v-6.36c0-1.8-0.48-2.73-1.71-3.42-1.11-0.63-2.64-1.02-4.05-1.02-3.48 0-6.54 1.8-6.54 3.81 0 0.72 0.66 1.32 1.44 1.32 0.84 0 1.53-0.69 1.53-1.53l-0.03-0.84c0-0.87 1.35-1.56 3.03-1.56 2.13 0 3.48 1.02 3.48 2.7zm0 5.13c-1.71 1.59-2.94 2.22-4.47 2.22-1.41 0-2.58-1.14-2.58-2.55 0-2.04 2.52-3.36 7.05-3.75z"/>
</g>
</svg>
