<?xml version="1.0" encoding="UTF-8"?>
<svg width="42pt" height="42pt" version="1.1" viewBox="0 0 42 42" xmlns="http://www.w3.org/2000/svg">
<rect width="42" height="42" fill="#203666" style="paint-order:stroke markers fill"/>
<g transform="rotate(-25 .96787 41.809)">
<path d="m16 43 3-1 1-3 1 3 3 1-3 1-1 3-1-3z" fill="#c7a23c"/>
<path d="m24 43-3-1-1-3v4z" fill="#ab8a33"/>
<path d="m16 43 3 1 1 3v-4z" fill="#ab8a33"/>
<path d="m24 43-3 1-1 3v-4z" fill="#8f742b"/>
<path transform="matrix(.67973 .31696 -.31696 .67973 17.76 3.5081)" d="m4.6738 2.957 2.6562 12.004-7.3301-0.76563v0.22852l6.0391 4.0801-6.0391 4.6387v2.0293l8.293-1.834-0.80664 7.7324 4.3516-6.4434 7.4883 9.75-2.6562-12.004 7.7324 0.80859-6.4414-4.3516 9.748-7.4883-12.002 2.6543 0.80664-7.7324-4.3516 6.4414z" fill="#c7a23c"/>
<path d="m33 20-9-2 3-5-5 3-2-9v13z" fill="#ab8a33"/>
<path transform="matrix(.67973 .31696 -.31696 .67973 17.76 3.5081)" d="m12 18.666-12 5.5957v0.91016l8.293-1.834-0.80664 7.7324 4.3516-6.4434 7.4883 9.75z" fill="#ab8a33"/>
<path d="m33 20-9 2 3 5-5-3-2 9v-13z" fill="#8f742b"/>
<path d="m39 20 3-1 1-3 1 3 3 1-3 1-1 3-1-3z" fill="#c7a23c"/>
<path d="m47 20-3-1-1-3v4z" fill="#ab8a33"/>
<path d="m39 20 3 1 1 3v-4z" fill="#ab8a33"/>
<path d="m47 20-3 1-1 3v-4z" fill="#8f742b"/>
<path d="m29 36 1-1 1 1-1 1z" fill="#c7a23c"/>
<path d="m31 36-1-1v1z" fill="#ab8a33"/>
<path d="m29 36 1 1v-1z" fill="#ab8a33"/>
<path d="m31 36-1 1v-1z" fill="#8f742b"/>
<path d="m35 30 1-1 1 1-1 1z" fill="#c7a23c"/>
<path d="m37 30-1-1v1z" fill="#ab8a33"/>
<path d="m35 30 1 1v-1z" fill="#ab8a33"/>
<path d="m37 30-1 1v-1z" fill="#8f742b"/>
<g transform="translate(-20)">
<path d="m29 36 1-1 1 1-1 1z" fill="#c7a23c"/>
<path d="m31 36-1-1v1z" fill="#ab8a33"/>
<path d="m29 36 1 1v-1z" fill="#ab8a33"/>
<path d="m31 36-1 1v-1z" fill="#8f742b"/>
</g>
</g>
</svg>
